<svg width="16" height="15" viewBox="0 0 16 15" fill="none" xmlns="http://www.w3.org/2000/svg">
    <path d="M14.9623 5.20682L10.4992 4.55819L8.50411 0.513459C8.44962 0.402716 8.35997 0.313068 8.24923 0.258576C7.9715 0.121466 7.634 0.235724 7.49513 0.513459L5.50001 4.55819L1.03693 5.20682C0.913879 5.2244 0.801379 5.2824 0.715246 5.37029C0.611116 5.47732 0.553736 5.62131 0.555714 5.77062C0.557691 5.91993 0.618865 6.06235 0.725793 6.16658L3.95489 9.31483L3.192 13.7603C3.17411 13.8637 3.18556 13.9701 3.22504 14.0673C3.26452 14.1646 3.33045 14.2488 3.41537 14.3105C3.50028 14.3722 3.60078 14.4088 3.70546 14.4163C3.81014 14.4237 3.91482 14.4017 4.00763 14.3527L7.99962 12.2539L11.9916 14.3527C12.1006 14.4107 12.2272 14.4301 12.3485 14.409C12.6543 14.3562 12.86 14.0662 12.8072 13.7603L12.0443 9.31483L15.2735 6.16658C15.3613 6.08045 15.4193 5.96795 15.4369 5.8449C15.4844 5.53729 15.2699 5.25252 14.9623 5.20682Z" fill="#50B2EA"/>
    </svg>
    