<svg width="16" height="16" viewBox="0 0 16 16" fill="none" xmlns="http://www.w3.org/2000/svg">
<path fill-rule="evenodd" clip-rule="evenodd" d="M7.5286 2.86194C7.78895 2.60158 8.21106 2.60158 8.47141 2.86193L13.1381 7.52859C13.2631 7.65361 13.3333 7.82318 13.3333 7.99999C13.3333 8.17681 13.2631 8.34637 13.1381 8.4714L8.47141 13.1381C8.21106 13.3984 7.78895 13.3984 7.5286 13.1381C7.26825 12.8777 7.26825 12.4556 7.5286 12.1953L11.0572 8.66666H3.33335C2.96516 8.66666 2.66668 8.36818 2.66668 7.99999C2.66668 7.6318 2.96516 7.33333 3.33335 7.33333H11.0572L7.5286 3.80474C7.26825 3.5444 7.26825 3.12229 7.5286 2.86194Z" fill="white"/>
</svg>
