<svg width="12" height="12" viewBox="0 0 12 12" fill="none" xmlns="http://www.w3.org/2000/svg">
<path fill-rule="evenodd" clip-rule="evenodd" d="M5.52859 0.861943C5.78894 0.601593 6.21105 0.601591 6.4714 0.86194L11.1381 5.5286C11.2631 5.65362 11.3333 5.82319 11.3333 6C11.3333 6.17681 11.2631 6.34638 11.1381 6.47141L6.4714 11.1381C6.21105 11.3984 5.78894 11.3984 5.52859 11.1381C5.26824 10.8777 5.26824 10.4556 5.52859 10.1953L9.0572 6.66667H1.33334C0.965152 6.66667 0.666676 6.36819 0.666676 6C0.666676 5.63181 0.965152 5.33334 1.33334 5.33334H9.0572L5.5286 1.80475C5.26824 1.5444 5.26824 1.12229 5.52859 0.861943Z" fill="black"/>
</svg>
