<svg width="24" height="24" viewBox="0 0 24 24" fill="none" xmlns="http://www.w3.org/2000/svg">
<path fill-rule="evenodd" clip-rule="evenodd" d="M12 1.25003C12.2855 1.25003 12.5462 1.41208 12.6725 1.66806L15.5882 7.57488L22.1085 8.52792C22.3909 8.5692 22.6254 8.7672 22.7134 9.03871C22.8015 9.31021 22.7278 9.60815 22.5233 9.8073L17.8059 14.4021L18.9192 20.8932C18.9675 21.1746 18.8518 21.459 18.6208 21.6268C18.3898 21.7946 18.0836 21.8167 17.8309 21.6838L12 18.6174L6.16911 21.6838C5.91642 21.8167 5.6102 21.7946 5.37922 21.6268C5.14823 21.459 5.03255 21.1746 5.08081 20.8932L6.19413 14.4021L1.47672 9.8073C1.27225 9.60815 1.19855 9.31021 1.28658 9.03871C1.37461 8.7672 1.60912 8.5692 1.89154 8.52792L8.41182 7.57488L11.3275 1.66806C11.4538 1.41208 11.7146 1.25003 12 1.25003ZM12 3.69447L9.58255 8.592C9.47339 8.81313 9.2625 8.96648 9.01849 9.00214L3.61133 9.79248L7.52332 13.6028C7.70022 13.7751 7.78097 14.0234 7.73922 14.2668L6.81615 19.6488L11.6509 17.1062C11.8695 16.9913 12.1306 16.9913 12.3491 17.1062L17.1839 19.6488L16.2608 14.2668C16.2191 14.0234 16.2998 13.7751 16.4767 13.6028L20.3887 9.79248L14.9815 9.00214C14.7375 8.96648 14.5266 8.81313 14.4175 8.592L12 3.69447Z" fill="black"/>
</svg>
