<svg width="24" height="24" viewBox="0 0 24 24" fill="none" xmlns="http://www.w3.org/2000/svg">
<path d="M4.63636 19.4545V4.90909H5.56818V19.4545H4.63636ZM7.77273 9.27273C7.70455 8.69697 7.42803 8.25 6.94318 7.93182C6.45833 7.61364 5.86364 7.45455 5.15909 7.45455C4.64394 7.45455 4.19318 7.53788 3.80682 7.70455C3.42424 7.87121 3.125 8.10038 2.90909 8.39205C2.69697 8.68371 2.59091 9.01515 2.59091 9.38636C2.59091 9.69697 2.66477 9.96401 2.8125 10.1875C2.96402 10.4072 3.1572 10.5909 3.39205 10.7386C3.62689 10.8826 3.87311 11.0019 4.13068 11.0966C4.38826 11.1875 4.625 11.2614 4.84091 11.3182L6.02273 11.6364C6.32576 11.7159 6.66288 11.8258 7.03409 11.9659C7.40909 12.1061 7.76705 12.2973 8.10795 12.5398C8.45265 12.7784 8.73674 13.0852 8.96023 13.4602C9.18371 13.8352 9.29545 14.2955 9.29545 14.8409C9.29545 15.4697 9.13068 16.0379 8.80114 16.5455C8.47538 17.053 7.99811 17.4564 7.36932 17.7557C6.74432 18.0549 5.98485 18.2045 5.09091 18.2045C4.25758 18.2045 3.53598 18.0701 2.92614 17.8011C2.32008 17.5322 1.8428 17.1572 1.49432 16.6761C1.14962 16.1951 0.954545 15.6364 0.909091 15H2.36364C2.40152 15.4394 2.54924 15.803 2.80682 16.0909C3.06818 16.375 3.39773 16.5871 3.79545 16.7273C4.19697 16.8636 4.62879 16.9318 5.09091 16.9318C5.62879 16.9318 6.11174 16.8447 6.53977 16.6705C6.9678 16.4924 7.30682 16.2462 7.55682 15.9318C7.80682 15.6136 7.93182 15.2424 7.93182 14.8182C7.93182 14.4318 7.82386 14.1174 7.60795 13.875C7.39205 13.6326 7.10795 13.4356 6.75568 13.2841C6.40341 13.1326 6.02273 13 5.61364 12.8864L4.18182 12.4773C3.27273 12.2159 2.55303 11.8428 2.02273 11.358C1.49242 10.8731 1.22727 10.2386 1.22727 9.45455C1.22727 8.80303 1.40341 8.23485 1.75568 7.75C2.11174 7.26136 2.58902 6.88258 3.1875 6.61364C3.78977 6.34091 4.46212 6.20455 5.20455 6.20455C5.95455 6.20455 6.62121 6.33901 7.20455 6.60795C7.78788 6.87311 8.25 7.23674 8.59091 7.69886C8.93561 8.16098 9.11742 8.68561 9.13636 9.27273H7.77273Z" fill="black"/>
</svg>
