<svg width="22" height="18" viewBox="0 0 22 18" fill="none" xmlns="http://www.w3.org/2000/svg">
<path fill-rule="evenodd" clip-rule="evenodd" d="M1.80178 2.64574L11 9.08452L20.1983 2.64574C20.044 2.1302 19.563 1.75 19 1.75H3.00002C2.43706 1.75 1.95603 2.1302 1.80178 2.64574ZM20.25 4.44049L11.4301 10.6144C11.1719 10.7952 10.8282 10.7952 10.5699 10.6144L1.75002 4.44049V15C1.75002 15.6858 2.31423 16.25 3.00002 16.25H19C19.6858 16.25 20.25 15.6858 20.25 15V4.44049ZM0.250015 3C0.250015 1.48579 1.4858 0.25 3.00002 0.25H19C20.5142 0.25 21.75 1.48579 21.75 3V15C21.75 16.5142 20.5142 17.75 19 17.75H3.00002C1.4858 17.75 0.250015 16.5142 0.250015 15V3Z" fill="black"/>
</svg>
