<svg width="24" height="24" viewBox="0 0 24 24" fill="none" xmlns="http://www.w3.org/2000/svg">
<path fill-rule="evenodd" clip-rule="evenodd" d="M12 1.74998C11.6685 1.74998 11.3505 1.88168 11.1161 2.1161C10.8817 2.35052 10.75 2.66846 10.75 2.99998V3.16998L10.75 3.17298C10.7481 3.64103 10.6094 4.09832 10.351 4.48856C10.0925 4.8788 9.72564 5.18496 9.29543 5.36934C9.2244 5.39978 9.14922 5.41901 9.07259 5.42646C8.67448 5.57096 8.24421 5.60786 7.82559 5.53196C7.35374 5.4464 6.91834 5.22146 6.57554 4.88613L6.56962 4.88035L6.50965 4.82031C6.39356 4.70409 6.25541 4.6116 6.10366 4.5487C5.95191 4.48579 5.78925 4.45341 5.62498 4.45341C5.46072 4.45341 5.29806 4.48579 5.14631 4.5487C4.99456 4.6116 4.8567 4.7038 4.74061 4.82002C4.62439 4.93611 4.5316 5.07456 4.4687 5.22631C4.40579 5.37806 4.37341 5.54072 4.37341 5.70498C4.37341 5.86925 4.40579 6.03191 4.4687 6.18366C4.5316 6.33541 4.6238 6.47327 4.74002 6.58936L4.80616 6.6555C5.14149 6.99831 5.3664 7.43374 5.45196 7.90559C5.5361 8.36966 5.48162 8.84805 5.2956 9.28107C5.12784 9.72367 4.83287 10.107 4.44759 10.3825C4.05589 10.6627 3.58897 10.8185 3.10752 10.8298L3.08998 10.83H2.99998C2.66846 10.83 2.35052 10.9617 2.1161 11.1961C1.88168 11.4305 1.74998 11.7485 1.74998 12.08C1.74998 12.4115 1.88168 12.7294 2.1161 12.9639C2.35052 13.1983 2.66846 13.33 2.99998 13.33H3.17298C3.64103 13.3319 4.09832 13.4705 4.48856 13.729C4.87769 13.9867 5.18321 14.3522 5.36776 14.7809C5.56008 15.2186 5.61727 15.7039 5.53196 16.1744C5.4464 16.6462 5.22146 17.0816 4.88613 17.4244L4.88034 17.4303L4.82031 17.4903C4.70409 17.6064 4.6116 17.7446 4.5487 17.8963C4.48579 18.0481 4.45341 18.2107 4.45341 18.375C4.45341 18.5393 4.48579 18.7019 4.5487 18.8537C4.6116 19.0054 4.7038 19.1433 4.82002 19.2594C4.93611 19.3756 5.07456 19.4684 5.22631 19.5313C5.37806 19.5942 5.54072 19.6266 5.70498 19.6266C5.86925 19.6266 6.03191 19.5942 6.18366 19.5313C6.33541 19.4684 6.47327 19.3762 6.58936 19.26L6.6555 19.1938C6.99831 18.8585 7.43374 18.6336 7.90559 18.548C8.36967 18.4639 8.84808 18.5184 9.28111 18.7044C9.72369 18.8721 10.107 19.1671 10.3825 19.5524C10.6627 19.9441 10.8185 20.411 10.8298 20.8924L10.83 20.91V21C10.83 21.3315 10.9617 21.6494 11.1961 21.8839C11.4305 22.1183 11.7485 22.25 12.08 22.25C12.4115 22.25 12.7294 22.1183 12.9639 21.8839C13.1983 21.6494 13.33 21.3315 13.33 21V20.83L13.33 20.827C13.3319 20.3589 13.4705 19.9016 13.729 19.5114C13.9866 19.1223 14.3521 18.8169 14.7806 18.6323C15.2184 18.4399 15.7038 18.3827 16.1744 18.468C16.6462 18.5536 17.0816 18.7785 17.4244 19.1138L17.4303 19.1196L17.4903 19.1797C17.6064 19.2959 17.7446 19.3884 17.8963 19.4513C18.0481 19.5142 18.2107 19.5466 18.375 19.5466C18.5393 19.5466 18.7019 19.5142 18.8537 19.4513C19.0054 19.3884 19.1433 19.2962 19.2594 19.1799C19.3756 19.0639 19.4684 18.9254 19.5313 18.7737C19.5942 18.6219 19.6266 18.4593 19.6266 18.295C19.6266 18.1307 19.5942 17.9681 19.5313 17.8163C19.4684 17.6646 19.3762 17.5267 19.26 17.4106L19.1938 17.3445C18.8585 17.0017 18.6336 16.5662 18.548 16.0944C18.4627 15.6238 18.5199 15.1384 18.7123 14.7006C18.8969 14.2721 19.2023 13.9066 19.5914 13.649C19.9816 13.3905 20.4389 13.2519 20.907 13.25L20.91 13.25L21 13.25C21.3315 13.25 21.6494 13.1183 21.8839 12.8839C22.1183 12.6494 22.25 12.3315 22.25 12C22.25 11.6685 22.1183 11.3505 21.8839 11.1161C21.6494 10.8817 21.3315 10.75 21 10.75H20.83L20.827 10.75C20.3589 10.7481 19.9016 10.6094 19.5114 10.351C19.1212 10.0926 18.815 9.72564 18.6306 9.29543C18.6002 9.2244 18.581 9.14923 18.5735 9.0726C18.429 8.67448 18.3921 8.24421 18.468 7.82559C18.5536 7.35374 18.7785 6.91834 19.1138 6.57554L19.1196 6.56962L19.1797 6.50966C19.2959 6.39356 19.3884 6.25541 19.4513 6.10366C19.5142 5.95191 19.5466 5.78925 19.5466 5.62498C19.5466 5.46072 19.5142 5.29806 19.4513 5.14631C19.3884 4.99456 19.2962 4.8567 19.1799 4.74061C19.0639 4.62439 18.9254 4.5316 18.7737 4.4687C18.6219 4.40579 18.4593 4.37341 18.295 4.37341C18.1307 4.37341 17.9681 4.40579 17.8163 4.4687C17.6646 4.5316 17.5267 4.6238 17.4106 4.74002L17.3445 4.80616C17.0017 5.14149 16.5662 5.3664 16.0944 5.45196C15.6239 5.53727 15.1386 5.48008 14.7009 5.28776C14.2722 5.10321 13.9067 4.79769 13.649 4.40856C13.3905 4.01832 13.2519 3.56103 13.25 3.09298L13.25 3.08998V2.99998C13.25 2.66846 13.1183 2.35052 12.8839 2.1161C12.6494 1.88168 12.3315 1.74998 12 1.74998ZM10.0554 1.05544C10.5712 0.539716 11.2706 0.249985 12 0.249985C12.7293 0.249985 13.4288 0.539716 13.9445 1.05544C14.4603 1.57117 14.75 2.27064 14.75 2.99998V3.08822C14.7509 3.26331 14.8029 3.43434 14.8996 3.58034C14.9965 3.72668 15.1341 3.84149 15.2954 3.91063L15.3028 3.9138C15.4673 3.98641 15.6498 4.00811 15.8268 3.97602C16.0025 3.94415 16.1648 3.86069 16.293 3.73632L16.3494 3.67995C16.3495 3.67985 16.3493 3.68005 16.3494 3.67995C16.6047 3.4244 16.9082 3.22137 17.2419 3.08304C17.5757 2.94464 17.9336 2.87341 18.295 2.87341C18.6564 2.87341 19.0142 2.94464 19.3481 3.08304C19.6817 3.22132 19.9847 3.42395 20.24 3.67936C20.4957 3.93476 20.6985 4.23805 20.8369 4.5719C20.9753 4.90574 21.0466 5.26359 21.0466 5.62498C21.0466 5.98638 20.9753 6.34423 20.8369 6.67807C20.6986 7.01179 20.4959 7.31497 20.2403 7.57031C20.2402 7.57041 20.2404 7.57021 20.2403 7.57031L20.1837 7.62698C20.0593 7.75514 19.9758 7.91742 19.9439 8.0932C19.9119 8.27015 19.9335 8.45264 20.0061 8.61716C20.033 8.67801 20.0516 8.74201 20.0615 8.80745C20.1306 8.92447 20.2255 9.02479 20.3396 9.10037C20.4856 9.19706 20.6567 9.24905 20.8317 9.24998H21C21.7293 9.24998 22.4288 9.53972 22.9445 10.0554C23.4603 10.5712 23.75 11.2706 23.75 12C23.75 12.7293 23.4603 13.4288 22.9445 13.9445C22.4288 14.4603 21.7293 14.75 21 14.75H20.9117C20.7367 14.7509 20.5656 14.8029 20.4196 14.8996C20.2733 14.9965 20.1585 15.1341 20.0893 15.2954L20.0862 15.3028C20.0136 15.4673 19.9919 15.6498 20.0239 15.8268C20.0558 16.0026 20.1393 16.1648 20.2637 16.293L20.32 16.3494C20.5757 16.6048 20.7785 16.9081 20.9169 17.2419C21.0553 17.5757 21.1266 17.9336 21.1266 18.295C21.1266 18.6564 21.0553 19.0142 20.9169 19.3481C20.7786 19.6818 20.5759 19.985 20.3203 20.2403C20.065 20.4959 19.7618 20.6986 19.4281 20.8369C19.0942 20.9753 18.7364 21.0466 18.375 21.0466C18.0136 21.0466 17.6557 20.9753 17.3219 20.8369C16.9881 20.6985 16.6848 20.4957 16.4294 20.24L16.373 20.1836C16.2448 20.0593 16.0825 19.9758 15.9068 19.9439C15.7298 19.9119 15.5473 19.9335 15.3828 20.0061L15.3755 20.0094C15.2141 20.0785 15.0765 20.1933 14.9796 20.3396C14.8829 20.4856 14.8309 20.6567 14.83 20.8317V21C14.83 21.7293 14.5403 22.4288 14.0245 22.9445C13.5088 23.4603 12.8093 23.75 12.08 23.75C11.3506 23.75 10.6512 23.4603 10.1354 22.9445C9.61972 22.4288 9.32998 21.7293 9.32998 21V20.9201C9.32435 20.7422 9.26608 20.5699 9.16247 20.425C9.05741 20.2781 8.91059 20.1662 8.7411 20.1039C8.72627 20.0984 8.71162 20.0925 8.69716 20.0861C8.53264 20.0135 8.35015 19.9919 8.1732 20.0239C7.99741 20.0558 7.83511 20.1393 7.70695 20.2637L7.65061 20.32C7.39521 20.5757 7.09191 20.7785 6.75807 20.9169C6.42423 21.0553 6.06638 21.1266 5.70498 21.1266C5.34359 21.1266 4.98574 21.0553 4.6519 20.9169C4.31806 20.7785 4.01476 20.5757 3.75936 20.32C3.50395 20.0647 3.30132 19.7617 3.16304 19.4281C3.02464 19.0942 2.95341 18.7364 2.95341 18.375C2.95341 18.0136 3.02464 17.6557 3.16304 17.3219C3.30137 16.9882 3.50411 16.685 3.75966 16.4297L3.81632 16.373C3.94069 16.2448 4.02415 16.0825 4.05602 15.9068C4.0881 15.7298 4.06645 15.5473 3.99384 15.3828L3.99059 15.3755C3.92145 15.2141 3.80668 15.0765 3.66034 14.9796C3.51434 14.8829 3.34331 14.8309 3.16822 14.83H2.99998C2.27064 14.83 1.57117 14.5403 1.05544 14.0245C0.539716 13.5088 0.249985 12.8093 0.249985 12.08C0.249985 11.3506 0.539716 10.6512 1.05544 10.1354C1.57117 9.61972 2.27064 9.32998 2.99998 9.32998H3.07989C3.2578 9.32435 3.43011 9.26608 3.57497 9.16247C3.72186 9.05741 3.83375 8.91059 3.89608 8.7411C3.90154 8.72627 3.90746 8.71162 3.91384 8.69716C3.98645 8.53264 4.00811 8.35015 3.97602 8.1732C3.94415 7.99741 3.86068 7.83512 3.73629 7.70695L3.67995 7.65061C3.67985 7.65051 3.68005 7.65071 3.67995 7.65061C3.4244 7.39527 3.22137 7.09179 3.08304 6.75807C2.94464 6.42423 2.87341 6.06638 2.87341 5.70498C2.87341 5.34359 2.94464 4.98574 3.08304 4.6519C3.22137 4.31818 3.42411 4.01499 3.67965 3.75965C3.93499 3.50411 4.23818 3.30137 4.5719 3.16304C4.90574 3.02464 5.26359 2.95341 5.62498 2.95341C5.98638 2.95341 6.34423 3.02464 6.67807 3.16304C7.01179 3.30137 7.31498 3.50411 7.57031 3.75965C7.57041 3.75975 7.57022 3.75956 7.57031 3.75965L7.62695 3.81629C7.75512 3.94068 7.91741 4.02415 8.0932 4.05602C8.27015 4.0881 8.45264 4.06645 8.61716 3.99384C8.67801 3.96698 8.74201 3.94841 8.80745 3.93848C8.92447 3.86941 9.02479 3.77446 9.10037 3.66034C9.19706 3.51434 9.24905 3.34331 9.24998 3.16822V2.99998C9.24998 2.27064 9.53972 1.57117 10.0554 1.05544ZM12 9.75C10.7574 9.75 9.75 10.7574 9.75 12C9.75 13.2426 10.7574 14.25 12 14.25C13.2426 14.25 14.25 13.2426 14.25 12C14.25 10.7574 13.2426 9.75 12 9.75ZM8.25 12C8.25 9.92893 9.92893 8.25 12 8.25C14.0711 8.25 15.75 9.92893 15.75 12C15.75 14.0711 14.0711 15.75 12 15.75C9.92893 15.75 8.25 14.0711 8.25 12Z" fill="black"/>
</svg>
