<svg width="581" height="129" viewBox="0 0 581 129" fill="none" xmlns="http://www.w3.org/2000/svg">
<path d="M235.23 73L226.83 57.4H225.57V73H213.81V30.7H232.35C235.75 30.7 238.63 31.3 240.99 32.5C243.35 33.66 245.13 35.28 246.33 37.36C247.53 39.4 248.13 41.7 248.13 44.26C248.13 47.14 247.33 49.68 245.73 51.88C244.17 54.04 241.87 55.58 238.83 56.5L248.37 73H235.23ZM225.57 49.36H231.39C232.99 49.36 234.19 48.98 234.99 48.22C235.79 47.46 236.19 46.36 236.19 44.92C236.19 43.56 235.77 42.5 234.93 41.74C234.13 40.94 232.95 40.54 231.39 40.54H225.57V49.36ZM269.138 73.42C265.778 73.42 262.758 72.72 260.078 71.32C257.438 69.92 255.358 67.92 253.838 65.32C252.318 62.72 251.558 59.66 251.558 56.14C251.558 52.66 252.318 49.62 253.838 47.02C255.398 44.42 257.498 42.42 260.138 41.02C262.818 39.62 265.838 38.92 269.198 38.92C272.558 38.92 275.558 39.62 278.198 41.02C280.878 42.42 282.978 44.42 284.498 47.02C286.058 49.62 286.838 52.66 286.838 56.14C286.838 59.62 286.058 62.68 284.498 65.32C282.978 67.92 280.878 69.92 278.198 71.32C275.518 72.72 272.498 73.42 269.138 73.42ZM269.138 63.22C270.778 63.22 272.138 62.62 273.218 61.42C274.338 60.18 274.898 58.42 274.898 56.14C274.898 53.86 274.338 52.12 273.218 50.92C272.138 49.72 270.798 49.12 269.198 49.12C267.598 49.12 266.258 49.72 265.178 50.92C264.098 52.12 263.558 53.86 263.558 56.14C263.558 58.46 264.078 60.22 265.118 61.42C266.158 62.62 267.498 63.22 269.138 63.22ZM326.063 39.34V73H314.243V68.2C313.243 69.72 311.863 70.96 310.103 71.92C308.343 72.84 306.323 73.3 304.043 73.3C300.123 73.3 297.023 72.02 294.743 69.46C292.503 66.86 291.383 63.34 291.383 58.9V39.34H303.083V57.4C303.083 59.32 303.583 60.84 304.583 61.96C305.623 63.04 306.983 63.58 308.663 63.58C310.383 63.58 311.743 63.04 312.743 61.96C313.743 60.84 314.243 59.32 314.243 57.4V39.34H326.063ZM354.776 39.04C358.656 39.04 361.736 40.34 364.016 42.94C366.296 45.5 367.436 48.98 367.436 53.38V73H355.676V54.94C355.676 53.02 355.176 51.52 354.176 50.44C353.176 49.32 351.836 48.76 350.156 48.76C348.396 48.76 347.016 49.32 346.016 50.44C345.016 51.52 344.516 53.02 344.516 54.94V73H332.756V39.34H344.516V44.14C345.556 42.62 346.956 41.4 348.716 40.48C350.476 39.52 352.496 39.04 354.776 39.04ZM371.968 56.14C371.968 52.66 372.588 49.62 373.828 47.02C375.108 44.42 376.848 42.42 379.048 41.02C381.248 39.62 383.688 38.92 386.368 38.92C388.528 38.92 390.448 39.38 392.128 40.3C393.848 41.18 395.188 42.4 396.148 43.96V28.6H407.968V73H396.148V68.32C395.228 69.88 393.928 71.12 392.248 72.04C390.568 72.96 388.588 73.42 386.308 73.42C383.628 73.42 381.188 72.72 378.988 71.32C376.828 69.92 375.108 67.92 373.828 65.32C372.588 62.68 371.968 59.62 371.968 56.14ZM396.208 56.14C396.208 53.98 395.608 52.28 394.408 51.04C393.248 49.8 391.808 49.18 390.088 49.18C388.328 49.18 386.868 49.8 385.708 51.04C384.548 52.24 383.968 53.94 383.968 56.14C383.968 58.3 384.548 60.02 385.708 61.3C386.868 62.54 388.328 63.16 390.088 63.16C391.808 63.16 393.248 62.54 394.408 61.3C395.608 60.06 396.208 58.34 396.208 56.14ZM447.574 73L439.174 57.4H437.914V73H426.154V30.7H444.694C448.094 30.7 450.974 31.3 453.334 32.5C455.694 33.66 457.474 35.28 458.674 37.36C459.874 39.4 460.474 41.7 460.474 44.26C460.474 47.14 459.674 49.68 458.074 51.88C456.514 54.04 454.214 55.58 451.174 56.5L460.714 73H447.574ZM437.914 49.36H443.734C445.334 49.36 446.534 48.98 447.334 48.22C448.134 47.46 448.534 46.36 448.534 44.92C448.534 43.56 448.114 42.5 447.274 41.74C446.474 40.94 445.294 40.54 443.734 40.54H437.914V49.36ZM481.482 73.42C478.122 73.42 475.102 72.72 472.422 71.32C469.782 69.92 467.702 67.92 466.182 65.32C464.662 62.72 463.902 59.66 463.902 56.14C463.902 52.66 464.662 49.62 466.182 47.02C467.742 44.42 469.842 42.42 472.482 41.02C475.162 39.62 478.182 38.92 481.542 38.92C484.902 38.92 487.902 39.62 490.542 41.02C493.222 42.42 495.322 44.42 496.842 47.02C498.402 49.62 499.182 52.66 499.182 56.14C499.182 59.62 498.402 62.68 496.842 65.32C495.322 67.92 493.222 69.92 490.542 71.32C487.862 72.72 484.842 73.42 481.482 73.42ZM481.482 63.22C483.122 63.22 484.482 62.62 485.562 61.42C486.682 60.18 487.242 58.42 487.242 56.14C487.242 53.86 486.682 52.12 485.562 50.92C484.482 49.72 483.142 49.12 481.542 49.12C479.942 49.12 478.602 49.72 477.522 50.92C476.442 52.12 475.902 53.86 475.902 56.14C475.902 58.46 476.422 60.22 477.462 61.42C478.502 62.62 479.842 63.22 481.482 63.22ZM502.046 56.14C502.046 52.66 502.766 49.62 504.206 47.02C505.646 44.42 507.646 42.42 510.206 41.02C512.806 39.62 515.766 38.92 519.086 38.92C523.366 38.92 526.966 40.1 529.886 42.46C532.806 44.78 534.686 48.04 535.526 52.24H523.046C522.326 50.04 520.926 48.94 518.846 48.94C517.366 48.94 516.186 49.56 515.306 50.8C514.466 52 514.046 53.78 514.046 56.14C514.046 58.5 514.466 60.3 515.306 61.54C516.186 62.78 517.366 63.4 518.846 63.4C520.966 63.4 522.366 62.3 523.046 60.1H535.526C534.686 64.26 532.806 67.52 529.886 69.88C526.966 72.24 523.366 73.42 519.086 73.42C515.766 73.42 512.806 72.72 510.206 71.32C507.646 69.92 505.646 67.92 504.206 65.32C502.766 62.72 502.046 59.66 502.046 56.14ZM561.472 73L552.172 59.2V73H540.412V28.6H552.172V52.54L561.472 39.34H575.572L562.312 56.26L575.812 73H561.472ZM234.183 85.965V105H228.891V94.497L225.3 105H220.872L217.254 94.416V105H211.962V85.965H218.361L223.14 98.331L227.811 85.965H234.183ZM254.233 105.189C252.721 105.189 251.362 104.874 250.156 104.244C248.968 103.614 248.032 102.714 247.348 101.544C246.664 100.374 246.322 98.997 246.322 97.413C246.322 95.847 246.664 94.479 247.348 93.309C248.05 92.139 248.995 91.239 250.183 90.609C251.389 89.979 252.748 89.664 254.26 89.664C255.772 89.664 257.122 89.979 258.31 90.609C259.516 91.239 260.461 92.139 261.145 93.309C261.847 94.479 262.198 95.847 262.198 97.413C262.198 98.979 261.847 100.356 261.145 101.544C260.461 102.714 259.516 103.614 258.31 104.244C257.104 104.874 255.745 105.189 254.233 105.189ZM254.233 100.599C254.971 100.599 255.583 100.329 256.069 99.789C256.573 99.231 256.825 98.439 256.825 97.413C256.825 96.387 256.573 95.604 256.069 95.064C255.583 94.524 254.98 94.254 254.26 94.254C253.54 94.254 252.937 94.524 252.451 95.064C251.965 95.604 251.722 96.387 251.722 97.413C251.722 98.457 251.956 99.249 252.424 99.789C252.892 100.329 253.495 100.599 254.233 100.599ZM281.604 100.005L284.439 89.853H290.082L284.871 105H278.283L273.072 89.853H278.715L281.604 100.005ZM304.538 88.449C303.602 88.449 302.846 88.197 302.27 87.693C301.712 87.171 301.433 86.523 301.433 85.749C301.433 84.957 301.712 84.3 302.27 83.778C302.846 83.256 303.602 82.995 304.538 82.995C305.456 82.995 306.194 83.256 306.752 83.778C307.328 84.3 307.616 84.957 307.616 85.749C307.616 86.523 307.328 87.171 306.752 87.693C306.194 88.197 305.456 88.449 304.538 88.449ZM307.157 89.853V105H301.865V89.853H307.157ZM330.069 89.718C331.815 89.718 333.201 90.303 334.227 91.473C335.253 92.625 335.766 94.191 335.766 96.171V105H330.474V96.873C330.474 96.009 330.249 95.334 329.799 94.848C329.349 94.344 328.746 94.092 327.99 94.092C327.198 94.092 326.577 94.344 326.127 94.848C325.677 95.334 325.452 96.009 325.452 96.873V105H320.16V89.853H325.452V92.013C325.92 91.329 326.55 90.78 327.342 90.366C328.134 89.934 329.043 89.718 330.069 89.718ZM354.249 89.664C355.275 89.664 356.166 89.871 356.922 90.285C357.696 90.699 358.29 91.257 358.704 91.959V89.853H363.996V104.838C363.996 106.26 363.726 107.538 363.186 108.672C362.646 109.824 361.8 110.742 360.648 111.426C359.514 112.11 358.074 112.452 356.328 112.452C353.988 112.452 352.116 111.903 350.712 110.805C349.308 109.707 348.507 108.213 348.309 106.323H353.52C353.628 106.809 353.898 107.187 354.33 107.457C354.762 107.727 355.32 107.862 356.004 107.862C357.804 107.862 358.704 106.854 358.704 104.838V102.894C358.29 103.596 357.696 104.154 356.922 104.568C356.166 104.982 355.275 105.189 354.249 105.189C353.043 105.189 351.945 104.874 350.955 104.244C349.983 103.614 349.209 102.714 348.633 101.544C348.075 100.356 347.796 98.979 347.796 97.413C347.796 95.847 348.075 94.479 348.633 93.309C349.209 92.139 349.983 91.239 350.955 90.609C351.945 89.979 353.043 89.664 354.249 89.664ZM358.704 97.413C358.704 96.441 358.434 95.676 357.894 95.118C357.372 94.56 356.724 94.281 355.95 94.281C355.158 94.281 354.501 94.56 353.979 95.118C353.457 95.658 353.196 96.423 353.196 97.413C353.196 98.385 353.457 99.159 353.979 99.735C354.501 100.293 355.158 100.572 355.95 100.572C356.724 100.572 357.372 100.293 357.894 99.735C358.434 99.177 358.704 98.403 358.704 97.413ZM399.342 105.189C397.128 105.189 395.31 104.667 393.888 103.623C392.466 102.561 391.701 101.049 391.593 99.087H397.236C397.29 99.753 397.488 100.239 397.83 100.545C398.172 100.851 398.613 101.004 399.153 101.004C399.639 101.004 400.035 100.887 400.341 100.653C400.665 100.401 400.827 100.059 400.827 99.627C400.827 99.069 400.566 98.637 400.044 98.331C399.522 98.025 398.676 97.683 397.506 97.305C396.264 96.891 395.256 96.495 394.482 96.117C393.726 95.721 393.06 95.154 392.484 94.416C391.926 93.66 391.647 92.679 391.647 91.473C391.647 90.249 391.953 89.205 392.565 88.341C393.177 87.459 394.023 86.793 395.103 86.343C396.183 85.893 397.407 85.668 398.775 85.668C400.989 85.668 402.753 86.19 404.067 87.234C405.399 88.26 406.11 89.709 406.2 91.581H400.449C400.431 91.005 400.251 90.573 399.909 90.285C399.585 89.997 399.162 89.853 398.64 89.853C398.244 89.853 397.92 89.97 397.668 90.204C397.416 90.438 397.29 90.771 397.29 91.203C397.29 91.563 397.425 91.878 397.695 92.148C397.983 92.4 398.334 92.625 398.748 92.823C399.162 93.003 399.774 93.237 400.584 93.525C401.79 93.939 402.78 94.353 403.554 94.767C404.346 95.163 405.021 95.73 405.579 96.468C406.155 97.188 406.443 98.106 406.443 99.222C406.443 100.356 406.155 101.373 405.579 102.273C405.021 103.173 404.202 103.884 403.122 104.406C402.06 104.928 400.8 105.189 399.342 105.189ZM433.365 97.251C433.365 97.665 433.338 98.079 433.284 98.493H423.267C423.321 99.321 423.546 99.942 423.942 100.356C424.356 100.752 424.878 100.95 425.508 100.95C426.39 100.95 427.02 100.554 427.398 99.762H433.041C432.807 100.806 432.348 101.742 431.664 102.57C430.998 103.38 430.152 104.019 429.126 104.487C428.1 104.955 426.966 105.189 425.724 105.189C424.23 105.189 422.898 104.874 421.728 104.244C420.576 103.614 419.667 102.714 419.001 101.544C418.353 100.374 418.029 98.997 418.029 97.413C418.029 95.829 418.353 94.461 419.001 93.309C419.649 92.139 420.549 91.239 421.701 90.609C422.871 89.979 424.212 89.664 425.724 89.664C427.218 89.664 428.541 89.97 429.693 90.582C430.845 91.194 431.745 92.076 432.393 93.228C433.041 94.362 433.365 95.703 433.365 97.251ZM427.965 95.928C427.965 95.28 427.749 94.776 427.317 94.416C426.885 94.038 426.345 93.849 425.697 93.849C425.049 93.849 424.518 94.029 424.104 94.389C423.69 94.731 423.42 95.244 423.294 95.928H427.965ZM450.813 92.526C451.407 91.662 452.127 90.978 452.973 90.474C453.819 89.97 454.728 89.718 455.7 89.718V95.361H454.215C453.063 95.361 452.208 95.586 451.65 96.036C451.092 96.486 450.813 97.269 450.813 98.385V105H445.521V89.853H450.813V92.526ZM474.85 100.005L477.685 89.853H483.328L478.117 105H471.529L466.318 89.853H471.961L474.85 100.005ZM497.784 88.449C496.848 88.449 496.092 88.197 495.516 87.693C494.958 87.171 494.679 86.523 494.679 85.749C494.679 84.957 494.958 84.3 495.516 83.778C496.092 83.256 496.848 82.995 497.784 82.995C498.702 82.995 499.44 83.256 499.998 83.778C500.574 84.3 500.862 84.957 500.862 85.749C500.862 86.523 500.574 87.171 499.998 87.693C499.44 88.197 498.702 88.449 497.784 88.449ZM500.403 89.853V105H495.111V89.853H500.403ZM512.543 97.413C512.543 95.847 512.867 94.479 513.515 93.309C514.163 92.139 515.063 91.239 516.215 90.609C517.385 89.979 518.717 89.664 520.211 89.664C522.137 89.664 523.757 90.195 525.071 91.257C526.385 92.301 527.231 93.768 527.609 95.658H521.993C521.669 94.668 521.039 94.173 520.103 94.173C519.437 94.173 518.906 94.452 518.51 95.01C518.132 95.55 517.943 96.351 517.943 97.413C517.943 98.475 518.132 99.285 518.51 99.843C518.906 100.401 519.437 100.68 520.103 100.68C521.057 100.68 521.687 100.185 521.993 99.195H527.609C527.231 101.067 526.385 102.534 525.071 103.596C523.757 104.658 522.137 105.189 520.211 105.189C518.717 105.189 517.385 104.874 516.215 104.244C515.063 103.614 514.163 102.714 513.515 101.544C512.867 100.374 512.543 98.997 512.543 97.413ZM554.269 97.251C554.269 97.665 554.242 98.079 554.188 98.493H544.171C544.225 99.321 544.45 99.942 544.846 100.356C545.26 100.752 545.782 100.95 546.412 100.95C547.294 100.95 547.924 100.554 548.302 99.762H553.945C553.711 100.806 553.252 101.742 552.568 102.57C551.902 103.38 551.056 104.019 550.03 104.487C549.004 104.955 547.87 105.189 546.628 105.189C545.134 105.189 543.802 104.874 542.632 104.244C541.48 103.614 540.571 102.714 539.905 101.544C539.257 100.374 538.933 98.997 538.933 97.413C538.933 95.829 539.257 94.461 539.905 93.309C540.553 92.139 541.453 91.239 542.605 90.609C543.775 89.979 545.116 89.664 546.628 89.664C548.122 89.664 549.445 89.97 550.597 90.582C551.749 91.194 552.649 92.076 553.297 93.228C553.945 94.362 554.269 95.703 554.269 97.251ZM548.869 95.928C548.869 95.28 548.653 94.776 548.221 94.416C547.789 94.038 547.249 93.849 546.601 93.849C545.953 93.849 545.422 94.029 545.008 94.389C544.594 94.731 544.324 95.244 544.198 95.928H548.869ZM572.878 105.189C571.51 105.189 570.286 104.964 569.206 104.514C568.144 104.046 567.298 103.416 566.668 102.624C566.056 101.814 565.714 100.905 565.642 99.897H570.772C570.844 100.383 571.069 100.761 571.447 101.031C571.825 101.301 572.293 101.436 572.851 101.436C573.283 101.436 573.625 101.346 573.877 101.166C574.129 100.986 574.255 100.752 574.255 100.464C574.255 100.086 574.048 99.807 573.634 99.627C573.22 99.447 572.536 99.249 571.582 99.033C570.502 98.817 569.602 98.574 568.882 98.304C568.162 98.034 567.532 97.593 566.992 96.981C566.47 96.369 566.209 95.541 566.209 94.497C566.209 93.597 566.452 92.787 566.938 92.067C567.424 91.329 568.135 90.744 569.071 90.312C570.025 89.88 571.168 89.664 572.5 89.664C574.48 89.664 576.037 90.15 577.171 91.122C578.305 92.094 578.962 93.372 579.142 94.956H574.363C574.273 94.47 574.057 94.101 573.715 93.849C573.391 93.579 572.95 93.444 572.392 93.444C571.96 93.444 571.627 93.525 571.393 93.687C571.177 93.849 571.069 94.074 571.069 94.362C571.069 94.722 571.276 95.001 571.69 95.199C572.104 95.379 572.77 95.568 573.688 95.766C574.786 96 575.695 96.261 576.415 96.549C577.153 96.837 577.792 97.305 578.332 97.953C578.89 98.583 579.169 99.447 579.169 100.545C579.169 101.427 578.908 102.219 578.386 102.921C577.882 103.623 577.153 104.181 576.199 104.595C575.263 104.991 574.156 105.189 572.878 105.189Z" fill="#4D6BB9"/>
<path d="M40.6467 92.8677C40.137 92.8646 39.6392 92.7136 39.2134 92.4329C38.7877 92.1522 38.4523 91.7537 38.2478 91.2859C38.0433 90.8181 37.9786 90.3009 38.0614 89.7969C38.1442 89.293 38.3711 88.8239 38.7144 88.4465C40.6754 86.3053 42.4678 84.0151 44.0755 81.5964C44.4673 81.0238 45.0679 80.6285 45.7479 80.4958C46.4279 80.363 47.1327 80.5035 47.7103 80.8869C48.2878 81.2704 48.6918 81.8659 48.8351 82.5452C48.9784 83.2244 48.8494 83.9329 48.4761 84.5177C46.7168 87.1625 44.7564 89.6672 42.6124 92.0095C42.3635 92.2832 42.0597 92.501 41.7209 92.6489C41.3822 92.7968 41.0161 92.8713 40.6467 92.8677Z" fill="#4D6BB9"/>
<path d="M61.3422 80.7607C57.2469 80.7607 51.8784 79.7198 44.9909 77.6491C36.6216 75.2762 31.8227 72.0041 28.9486 66.7024C28.671 66.0921 28.6352 65.3988 28.8484 64.763C29.0616 64.1272 29.5078 63.5963 30.0968 63.2777C30.6857 62.9591 31.3735 62.8767 32.0209 63.047C32.6682 63.2173 33.2268 63.6277 33.5837 64.1952C35.7467 68.1799 39.4734 70.6125 46.4466 72.5861H46.4875C57.8277 75.9963 64.7301 76.3992 66.4911 73.7577C66.5993 73.5647 66.6665 73.3514 66.6883 73.1311C66.71 72.9108 66.686 72.6884 66.6177 72.4779C66.3459 71.5004 65.3072 70.5341 63.6951 69.7581C61.4316 68.6947 60.1397 68.1724 58.5016 67.5195C57.0384 66.9263 55.378 66.2547 52.6304 65.0347C43.3565 60.994 42.7161 53.6216 42.6938 53.3082L47.9581 52.9351V52.8941C47.9767 53.0807 48.5128 57.4869 54.7562 60.2068C57.4368 61.397 59.0563 62.0499 60.4822 62.6282C62.1277 63.2923 63.5462 63.8669 65.9624 65.0048C69.8306 66.8703 71.2155 69.3327 71.7033 71.0751C71.9733 72.0113 72.042 72.9943 71.9046 73.9591C71.7673 74.9238 71.4271 75.8484 70.9065 76.6716C69.0897 79.3989 66.0369 80.7607 61.3422 80.7607Z" fill="#4D6BB9"/>
<path d="M36.5105 128.066C36.0823 128.066 35.6765 128.066 35.3117 128.028C34.3735 128.006 23.3199 127.748 19.7571 127.532H19.7273C14.3476 127.122 11.1197 125.562 9.8651 122.771C8.1637 118.981 11.1272 115.063 12.0989 113.776L12.1398 113.724C13.1637 112.44 13.1302 111.97 12.9328 111.168C12.7132 110.444 11.9984 109.553 11.1011 108.429C9.16146 106.001 6.30966 102.434 4.39977 95.5987C3.43434 95.4647 2.52674 95.0587 1.78261 94.4279C1.03849 93.7972 0.48845 92.9675 0.196524 92.0356C-0.0109927 91.3131 -0.0548396 90.5533 0.0681865 89.8116C0.191213 89.0699 0.478005 88.3651 0.907613 87.7488C1.4009 87.0293 2.04192 86.4238 2.78772 85.9728C3.24564 74.377 10.1816 58.6995 11.0006 56.8713C12.7343 53.0327 13.7719 48.9153 14.0646 44.7121V44.5106L14.1019 44.3091C19.0013 17.2521 34.8723 7.74564 38.5544 5.88016C42.4002 0.507569 47.3592 -0.533371 50.5275 0.257594C51.0977 0.389047 51.6299 0.651175 52.082 1.0234C52.5342 1.39562 52.8941 1.86781 53.1336 2.4029C53.7776 3.82813 53.5059 5.51453 53.0703 6.84275C53.8484 7.66729 54.8908 8.8127 55.9109 10.0551C59.2355 14.1144 60.3189 16.7709 59.5334 18.905C59.2876 19.5952 61.648 22.1696 64.2988 24.9678L64.444 25.1319C65.0061 25.8371 66.0858 27.8033 63.9823 30.859C62.3554 33.2058 58.5095 36.5151 55.0956 35.3996C54.4664 35.1944 53.6064 34.8959 52.5677 34.5004C52.0427 35.6943 52.0502 37.2165 52.5677 38.9365C52.6943 39.3395 52.8581 39.8208 53.0442 40.3692C54.5381 44.506 55.5792 48.7931 56.1492 53.1552C56.19 53.4999 56.1627 53.8493 56.0688 54.1834C55.9749 54.5175 55.8162 54.8298 55.6019 55.1025C55.3875 55.3751 55.1217 55.6028 54.8196 55.7725C54.5174 55.9422 54.1849 56.0506 53.8409 56.0915C53.497 56.1324 53.1484 56.105 52.815 56.0109C52.4816 55.9168 52.17 55.7578 51.8979 55.543C51.6258 55.3282 51.3986 55.0618 51.2293 54.759C51.0599 54.4562 50.9518 54.123 50.9109 53.7783C50.3874 49.7836 49.4273 45.8587 48.048 42.0743C47.8469 41.4736 47.6757 40.955 47.5342 40.511C46.2386 36.3622 47.121 33.3886 48.0926 31.6238C48.3109 31.2185 48.5598 30.8306 48.8372 30.4635C49.1468 30.059 49.4933 29.6843 49.8722 29.3442L51.0748 28.2846L52.5639 28.8592C54.3063 29.5345 55.6801 30.0382 56.5513 30.3292C57.3405 30.1986 58.9972 28.8069 59.6711 27.7959C55.7285 23.6172 53.3979 20.8824 54.4589 17.4163C54.0866 16.0769 51.2162 12.3982 48.1038 9.3313L46.7189 7.96204L47.6124 6.23087C47.7534 5.94359 47.8778 5.64835 47.9847 5.34663C46.4955 5.53691 44.433 6.54054 42.538 9.45069L42.1024 10.0962L41.3578 10.4096C41.3205 10.4245 37.0391 12.3347 32.1993 17.5581C27.7317 22.3598 21.9127 31.0269 19.3289 45.0926C18.9956 49.9269 17.8029 54.6626 15.807 59.0763C12.9031 65.5047 7.98872 78.6713 8.04084 87.2264C8.06542 87.9057 7.8718 88.575 7.48845 89.1359C7.10511 89.6967 6.55228 90.1194 5.9113 90.3418C6.50733 90.2812 7.10754 90.4055 7.63085 90.6977C8.15417 90.99 8.57537 91.4361 8.83756 91.9759L8.96786 92.2446L9.0386 92.5356C10.6581 99.4304 13.1823 102.587 15.2076 105.12C16.4436 106.665 17.5084 108 18.0073 109.754L18.0296 109.836C18.6848 112.47 18.1599 114.612 16.2761 116.992C14.3103 119.604 14.6231 120.503 14.664 120.6C14.705 120.697 15.2969 121.887 20.0996 122.256C23.6662 122.477 35.3638 122.745 35.4792 122.749H35.5797C36.2824 122.784 36.9868 122.767 37.6869 122.697C35.751 121.305 32.7726 121.376 30.5649 121.428C29.6177 121.498 28.6655 121.457 27.728 121.305C24.8464 120.663 24.2284 118.943 24.1167 117.977C23.7928 115.112 26.8568 113.037 31.9089 110.616L32.0131 110.567C33.681 109.858 41.9199 105.986 41.1307 99.1804C39.8425 92.4647 37.0354 89.4799 32.5678 85.3759C32.1154 84.8907 31.862 84.2525 31.8579 83.5885C31.8539 82.9245 32.0996 82.2833 32.546 81.7926C32.9924 81.3019 33.6069 80.9978 34.2671 80.9407C34.9272 80.8836 35.5846 81.0777 36.1084 81.4845C41.0897 86.0586 44.7382 89.9426 46.3168 98.2738L46.3428 98.438C47.3704 106.646 40.7137 112.578 34.1203 115.406C33.5842 115.655 33.1039 115.894 32.6795 116.123C35.4382 116.186 38.8969 116.667 41.5625 119.052L41.6407 119.122C43.7628 121.186 44.4292 123.163 43.6213 125.01C42.5193 127.554 39.0868 128.066 36.5105 128.066ZM54.5632 17.0954V17.129V17.0954Z" fill="#4D6BB9"/>
<path d="M149.857 92.8677C149.489 92.8683 149.126 92.792 148.79 92.6435C148.454 92.4951 148.153 92.2779 147.906 92.0058C145.762 89.6642 143.803 87.1594 142.046 84.514C141.659 83.9297 141.52 83.2154 141.659 82.5284C141.798 81.8413 142.204 81.2376 142.787 80.8502C143.37 80.4628 144.082 80.3234 144.768 80.4626C145.454 80.6019 146.056 81.0084 146.443 81.5927C148.051 84.0118 149.844 86.3032 151.804 88.4465C152.149 88.8247 152.377 89.2955 152.46 89.8014C152.543 90.3074 152.477 90.8266 152.271 91.2957C152.065 91.7648 151.726 92.1636 151.298 92.4434C150.869 92.7232 150.368 92.8719 149.857 92.8714V92.8677Z" fill="#4D6BB9"/>
<path d="M129.15 80.7607C124.459 80.7607 121.417 79.4026 119.611 76.6566C119.083 75.8297 118.738 74.8992 118.598 73.9276C118.458 72.956 118.527 71.9657 118.8 71.0229C119.287 69.2842 120.661 66.8181 124.518 64.9675C126.957 63.8184 128.379 63.2438 130.024 62.5797C131.45 62.0014 133.066 61.3485 135.732 60.1657C141.99 57.4384 142.526 53.0321 142.545 52.8456V52.8866L147.809 53.2597C147.787 53.5731 147.146 60.9455 137.854 64.9936C135.125 66.2062 133.468 66.8777 132.001 67.471C130.363 68.1351 129.071 68.6574 126.789 69.7319C125.199 70.4968 124.161 71.4631 123.889 72.4406C123.82 72.6553 123.797 72.882 123.821 73.1062C123.845 73.3304 123.915 73.5472 124.027 73.7427C125.762 76.3544 132.679 75.9589 144.019 72.5488H144.06C151.033 70.5751 154.76 68.1425 156.923 64.1579C157.27 63.567 157.833 63.1343 158.493 62.9513C159.152 62.7682 159.857 62.8491 160.458 63.1767C161.059 63.5043 161.51 64.0532 161.715 64.7075C161.921 65.3617 161.864 66.0703 161.558 66.6837C158.684 71.9854 153.885 75.265 145.516 77.6341C138.617 79.7197 133.252 80.7607 129.15 80.7607Z" fill="#4D6BB9"/>
<path d="M153.989 128.066C151.413 128.066 147.98 127.554 146.863 125.014C146.055 123.167 146.722 121.189 148.844 119.126L148.915 119.04C151.58 116.656 155.039 116.175 157.801 116.112C157.373 115.891 156.893 115.653 156.357 115.395C149.764 112.567 143.107 106.635 144.134 98.4268L144.16 98.2626C145.739 89.9276 149.373 86.0437 154.369 81.4733C154.624 81.2388 154.923 81.0571 155.249 80.9385C155.574 80.8198 155.92 80.7666 156.266 80.7819C156.612 80.7971 156.952 80.8805 157.266 81.0273C157.58 81.1741 157.862 81.3814 158.096 81.6374C158.329 81.8934 158.511 82.1931 158.629 82.5194C158.748 82.8456 158.801 83.192 158.785 83.5388C158.77 83.8856 158.687 84.226 158.541 84.5406C158.394 84.8551 158.187 85.1377 157.932 85.3721C153.464 89.4762 150.65 92.461 149.369 99.1767C148.583 105.982 156.815 109.855 158.486 110.564L158.591 110.612C163.643 113.034 166.711 115.108 166.383 117.973C166.271 118.94 165.657 120.66 162.772 121.301C161.834 121.453 160.882 121.495 159.935 121.424C157.727 121.372 154.749 121.301 152.813 122.693C153.514 122.765 154.22 122.782 154.924 122.745H155.02C155.136 122.745 166.837 122.473 170.4 122.253C175.203 121.88 175.809 120.648 175.836 120.596C175.862 120.544 176.208 119.6 174.223 116.988C172.34 114.608 171.815 112.466 172.47 109.832L172.492 109.75C172.991 107.997 174.06 106.661 175.292 105.116C177.317 102.583 179.841 99.4267 181.461 92.5319L181.532 92.2408L181.662 91.9685C181.925 91.43 182.345 90.9851 182.868 90.6936C183.39 90.4021 183.99 90.278 184.585 90.3381C183.94 90.112 183.386 89.6841 183.003 89.1177C182.62 88.5512 182.429 87.8763 182.459 87.1929C182.5 78.6676 177.597 65.501 174.693 59.0688C172.696 54.6566 171.503 49.922 171.171 45.0889C166.189 17.9797 149.287 10.4693 149.131 10.4096L148.386 10.0962L147.95 9.42831C146.055 6.53681 143.974 5.53318 142.5 5.32425C142.606 5.62874 142.73 5.92652 142.872 6.21595L143.751 7.93966L142.377 9.30892C139.261 12.3758 136.379 16.0582 136.022 17.3977C137.053 20.8749 134.726 23.6023 130.791 27.7735C131.465 28.7846 133.122 30.1762 133.911 30.3068C134.782 30.0158 136.145 29.5084 137.898 28.8368L139.388 28.2622L140.59 29.3218C140.969 29.6626 141.317 30.0373 141.629 30.4411C141.905 30.8101 142.154 31.1992 142.373 31.6052C143.341 33.3662 144.235 36.3398 142.932 40.4923C142.794 40.9289 142.615 41.4549 142.411 42.0519C141.037 45.8379 140.079 49.7623 139.551 53.7559C139.469 54.4521 139.114 55.0868 138.564 55.5206C138.015 55.9545 137.316 56.1518 136.621 56.0691C135.927 55.9865 135.293 55.6307 134.86 55.0801C134.428 54.5294 134.231 53.829 134.313 53.1329C134.883 48.772 135.924 44.486 137.418 40.3506C137.604 39.7984 137.768 39.3171 137.895 38.9141C138.431 37.1942 138.435 35.6719 137.895 34.478C136.845 34.8735 135.996 35.172 135.37 35.3772C131.938 36.4965 128.096 33.1834 126.476 30.8366C124.373 27.7772 125.452 25.8147 126.018 25.1096L126.16 24.9454C128.811 22.1472 131.171 19.5728 130.914 18.8527C130.14 16.7373 131.223 14.092 134.548 10.0327C135.568 8.79032 136.61 7.64491 137.388 6.82037C136.956 5.49214 136.681 3.80575 137.325 2.38052C137.564 1.84543 137.924 1.37324 138.377 1.00102C138.829 0.628793 139.361 0.366665 139.931 0.235212C143.099 -0.555753 148.058 0.485187 151.901 5.8727C155.583 7.73819 171.454 17.2484 176.353 44.3017L176.39 44.5031V44.7121C176.68 48.9131 177.716 53.0284 179.451 56.8638C180.27 58.6771 187.217 74.377 187.663 85.9654C188.41 86.4139 189.051 87.0183 189.544 87.7376C189.974 88.355 190.261 89.0612 190.383 89.8044C190.506 90.5475 190.46 91.3086 190.251 92.0319C189.96 92.9586 189.413 93.7838 188.674 94.4123C187.935 95.0408 187.033 95.447 186.074 95.5838C184.156 102.419 181.301 105.986 179.372 108.415C178.475 109.534 177.76 110.429 177.541 111.153C177.343 111.955 177.314 112.425 178.334 113.709L178.375 113.761C179.346 115.048 182.31 118.966 180.608 122.756C179.354 125.547 176.141 127.107 170.746 127.517H170.705C167.142 127.734 156.089 127.991 155.151 128.013C154.823 128.051 154.417 128.066 153.989 128.066ZM135.929 17.0656V17.1066V17.0656Z" fill="#4D6BB9"/>
<path d="M129.316 58.5614C128.97 58.5619 128.626 58.4938 128.306 58.3611C127.985 58.2283 127.694 58.0335 127.449 57.7877C127.204 57.542 127.009 57.2502 126.877 56.929C126.744 56.6079 126.676 56.2637 126.677 55.9162V53.0732C126.677 51.8718 125.891 50.857 124.964 50.857H65.5194C64.5924 50.857 63.8105 51.8718 63.8105 53.0732V55.9162C63.8239 56.2716 63.7655 56.6262 63.6389 56.9585C63.5124 57.2909 63.3202 57.5943 63.074 57.8505C62.8277 58.1067 62.5324 58.3106 62.2058 58.4498C61.8791 58.589 61.5278 58.6607 61.1728 58.6607C60.8178 58.6607 60.4665 58.589 60.1398 58.4498C59.8131 58.3106 59.5179 58.1067 59.2716 57.8505C59.0253 57.5943 58.8332 57.2909 58.7066 56.9585C58.5801 56.6262 58.5217 56.2716 58.5351 55.9162V53.0732C58.5351 48.9355 61.6698 45.5702 65.5194 45.5702H124.964C128.817 45.5702 131.956 48.9281 131.956 53.0732V55.9162C131.956 56.6177 131.678 57.2906 131.183 57.7866C130.688 58.2827 130.016 58.5614 129.316 58.5614Z" fill="#4D6BB9"/>
<path d="M124.964 100.195H65.5195C61.6699 100.195 58.5352 96.8374 58.5352 92.696V86.9951C58.5608 86.3112 58.8499 85.6639 59.3418 85.1892C59.8337 84.7144 60.49 84.4492 61.1729 84.4492C61.8558 84.4492 62.5121 84.7144 63.004 85.1892C63.4958 85.6639 63.785 86.3112 63.8106 86.9951V92.696C63.8106 93.8937 64.5924 94.9085 65.5195 94.9085H124.964C125.891 94.9085 126.677 93.8937 126.677 92.696V86.9951C126.677 86.2935 126.955 85.6207 127.45 85.1246C127.945 84.6286 128.616 84.3499 129.316 84.3499C130.016 84.3499 130.688 84.6286 131.183 85.1246C131.678 85.6207 131.956 86.2935 131.956 86.9951V92.696C131.956 96.8299 128.81 100.195 124.964 100.195Z" fill="#4D6BB9"/>
</svg>
