<svg width="20" height="16" viewBox="0 0 20 16" fill="none" xmlns="http://www.w3.org/2000/svg">
    <path fill-rule="evenodd" clip-rule="evenodd" d="M2.81535 2.58333C2.93822 2.43143 3.12572 2.33325 3.33338 2.33325H16.6667C16.8744 2.33325 17.0619 2.43143 17.1847 2.58333L10 7.61262L2.81535 2.58333ZM0.666771 2.982C0.6666 2.99207 0.66658 3.00213 0.666712 3.01219V12.9999C0.666712 14.4689 1.86443 15.6666 3.33338 15.6666H16.6667C18.1357 15.6666 19.3334 14.4689 19.3334 12.9999V3.0122C19.3335 3.00213 19.3335 2.99206 19.3333 2.98198C19.3236 1.52123 18.1297 0.333252 16.6667 0.333252H3.33338C1.8704 0.333252 0.676464 1.52124 0.666771 2.982ZM17.3334 4.9206V12.9999C17.3334 13.3643 17.0311 13.6666 16.6667 13.6666H3.33338C2.969 13.6666 2.66671 13.3643 2.66671 12.9999V4.92059L9.42658 9.6525C9.7709 9.89353 10.2292 9.89353 10.5735 9.6525L17.3334 4.9206Z" fill="white"/>
    </svg>
    