<svg width="548" height="437" viewBox="0 0 548 437" fill="none" xmlns="http://www.w3.org/2000/svg">
<g filter="url(#filter0_d_14_946)">
<path d="M285.629 57.9309H210.321V169.335H285.629V57.9309Z" fill="#3EC1F3"/>
<path d="M188.258 57.9309H210.321V169.335H160.858V85.3312C160.858 78.0642 163.745 71.0948 168.883 65.9563C174.022 60.8177 180.991 57.9309 188.258 57.9309Z" fill="#3EC1F3"/>
<path d="M184.253 147.501C190.29 147.501 195.185 142.151 195.185 135.553C195.185 128.954 190.29 123.605 184.253 123.605C178.215 123.605 173.321 128.954 173.321 135.553C173.321 142.151 178.215 147.501 184.253 147.501Z" fill="#F4E6D8"/>
<path d="M199.627 135.811H168.878C168.877 138.864 169.786 141.849 171.489 144.384C173.192 146.919 175.612 148.889 178.439 150.043V153.932H190.066V150.043C192.894 148.889 195.314 146.919 197.017 144.384C198.72 141.849 199.629 138.864 199.627 135.811Z" fill="#3546AB"/>
<path d="M160.289 105.965L209.383 86.0361" stroke="#3546AB" stroke-width="4" stroke-miterlimit="10" stroke-linecap="round"/>
<path d="M209.432 57.9309V169.335" stroke="#3546AB" stroke-width="4" stroke-miterlimit="10"/>
<path d="M486.157 350.254V307.479L460.312 281.187H387.677L361.832 307.479V347.138H271.373V330.646C242.407 327.525 251.317 306.137 235.276 306.137H206.758C204.68 306.13 202.643 306.72 200.891 307.839L160.629 282.956H119.191L67.2778 315.038H67.3896V355.431L32.5231 376.979V413.964H512.001V376.536L486.157 350.254Z" fill="#F5EBDD"/>
<path d="M529.384 413.974H501.308C501.308 406.226 507.593 398.381 515.346 398.381C523.099 398.381 529.384 406.226 529.384 413.974Z" fill="#FFB494"/>
<path d="M544 413.974H523.142C523.142 408.219 527.814 402.391 533.569 402.391C539.324 402.391 544 408.219 544 413.974Z" fill="#FFB494"/>
<path d="M134.269 226.834C147.879 222.62 165.378 216.563 218.628 260.111C271.878 303.659 292.026 275.179 286.577 268.598C282.203 263.3 257.772 277.595 275.956 296.868C293.237 315.193 343.881 297.665 357.768 286.447C377.532 270.484 405.827 257.928 430.768 257.024" stroke="#FFB494" stroke-width="4" stroke-linecap="round" stroke-linejoin="round" stroke-dasharray="12 12"/>
<path d="M171.109 315.048L119.191 282.966" stroke="#FFB494" stroke-width="4" stroke-linecap="round" stroke-linejoin="round"/>
<path d="M67.8757 315.047H171.221V413.488" stroke="#FFB494" stroke-width="4" stroke-linecap="round" stroke-linejoin="round"/>
<path d="M66.0529 413.673L66.539 355.917" stroke="#FFB494" stroke-width="4" stroke-linecap="round" stroke-linejoin="round"/>
<path d="M33.0092 376.989H65.9411" stroke="#FFB494" stroke-width="4" stroke-linecap="round" stroke-linejoin="round"/>
<path d="M66.6119 370.081H170.438" stroke="#FFB494" stroke-width="4" stroke-linecap="round" stroke-linejoin="round"/>
<path d="M360.714 384.79H434.243" stroke="#FFB494" stroke-width="4" stroke-linecap="round" stroke-linejoin="round"/>
<path d="M171.109 315.047H195.335" stroke="#FFB494" stroke-width="4" stroke-linecap="round" stroke-linejoin="round"/>
<path d="M362.318 307.474H434.467V413.488" stroke="#FFB494" stroke-width="4" stroke-linecap="round" stroke-linejoin="round"/>
<path d="M434.467 413.002V307.474H485.184" stroke="#FFB494" stroke-width="4" stroke-linecap="round" stroke-linejoin="round"/>
<path d="M243.297 331.535H270.887" stroke="#FFB494" stroke-width="4" stroke-linecap="round" stroke-linejoin="round"/>
<path d="M460.312 413.488V376.546H511.238" stroke="#FFB494" stroke-width="4" stroke-linecap="round" stroke-linejoin="round"/>
<path d="M460.03 281.469L434.467 307.474" stroke="#FFB494" stroke-width="4" stroke-linecap="round" stroke-linejoin="round"/>
<path d="M434.467 350.254L460.312 376.546" stroke="#FFB494" stroke-width="4" stroke-linecap="round" stroke-linejoin="round"/>
<path d="M485.408 349.141H434.69" stroke="#FFB494" stroke-width="4" stroke-linecap="round" stroke-linejoin="round"/>
<path d="M207.303 307.027C191.262 307.027 200.172 328.415 171.206 331.535H243.409C214.429 328.419 223.343 307.027 207.303 307.027Z" stroke="#FFB494" stroke-width="4" stroke-linecap="round" stroke-linejoin="round"/>
<path d="M171.206 413.002V331.54H243.394V413.488" stroke="#FFB494" stroke-width="4" stroke-linecap="round" stroke-linejoin="round"/>
<path d="M243.297 413.002V355.154H360.719V413.488" stroke="#FFB494" stroke-width="4" stroke-linecap="round" stroke-linejoin="round"/>
<path d="M243.506 354.065L270.629 346.239" stroke="#FFB494" stroke-width="4" stroke-linecap="round" stroke-linejoin="round"/>
<path d="M360.719 347.62V355.154H243.297" stroke="#FFB494" stroke-width="4" stroke-linecap="round" stroke-linejoin="round"/>
<path d="M266.624 368.526H266.74C268.849 368.526 270.872 369.364 272.363 370.855C273.855 372.346 274.693 374.369 274.693 376.478V413.979H258.652V376.478C258.652 375.432 258.858 374.397 259.259 373.43C259.66 372.464 260.248 371.587 260.988 370.848C261.729 370.109 262.608 369.524 263.575 369.126C264.542 368.727 265.578 368.523 266.624 368.526Z" fill="#FFB494"/>
<path d="M338.369 368.526H338.505C340.614 368.526 342.637 369.364 344.128 370.855C345.62 372.346 346.457 374.369 346.457 376.478V413.979H330.417V376.478C330.417 374.369 331.255 372.346 332.746 370.855C334.237 369.364 336.26 368.526 338.369 368.526Z" fill="#FFB494"/>
<path d="M302.496 368.526H302.632C304.742 368.526 306.764 369.364 308.256 370.855C309.747 372.346 310.585 374.369 310.585 376.478V413.979H294.544V376.478C294.544 374.369 295.382 372.346 296.873 370.855C298.365 369.364 300.387 368.526 302.496 368.526Z" fill="#FFB494"/>
<path d="M486.983 386.793H487.119C489.228 386.793 491.251 387.631 492.742 389.122C494.233 390.613 495.071 392.636 495.071 394.745V413.974H479.031V394.745C479.031 392.636 479.868 390.613 481.36 389.122C482.851 387.631 484.874 386.793 486.983 386.793Z" fill="#FFB494"/>
<path d="M88.7139 386.793H88.8354C90.9445 386.793 92.9672 387.631 94.4585 389.122C95.9498 390.613 96.7877 392.636 96.7877 394.745V413.974H80.747V394.745C80.747 393.701 80.9527 392.667 81.3524 391.702C81.752 390.737 82.3378 389.86 83.0762 389.122C83.8146 388.383 84.6913 387.798 85.6561 387.398C86.6209 386.998 87.655 386.793 88.6993 386.793H88.7139Z" fill="#FFB494"/>
<path d="M149.761 386.793H149.897C150.942 386.791 151.977 386.996 152.943 387.395C153.909 387.794 154.787 388.38 155.526 389.118C156.266 389.857 156.852 390.734 157.252 391.7C157.653 392.665 157.859 393.7 157.859 394.745V413.974H141.818V394.745C141.818 392.638 142.655 390.616 144.144 389.125C145.633 387.634 147.653 386.795 149.761 386.793Z" fill="#FFB494"/>
<path d="M119.235 386.793H119.371C121.48 386.793 123.503 387.631 124.994 389.122C126.485 390.613 127.323 392.636 127.323 394.745V413.974H111.283V394.745C111.283 392.636 112.12 390.613 113.612 389.122C115.103 387.631 117.126 386.793 119.235 386.793Z" fill="#FFB494"/>
<path d="M96.7974 329.309H80.7568V356.49H96.7974V329.309Z" fill="#FFB494"/>
<path d="M157.849 329.309H141.808V356.49H157.849V329.309Z" fill="#FFB494"/>
<path d="M127.323 329.309H111.283V356.49H127.323V329.309Z" fill="#FFB494"/>
<path d="M201.28 345.35H187.952V365.4H201.28V345.35Z" fill="#FFB494"/>
<path d="M226.644 345.35H213.315V365.4H226.644V345.35Z" fill="#FFB494"/>
<path d="M201.28 380.556H187.952V400.607H201.28V380.556Z" fill="#FFB494"/>
<path d="M226.644 380.556H213.315V400.607H226.644V380.556Z" fill="#FFB494"/>
<path d="M391.561 318.615H378.232V338.666H391.561V318.615Z" fill="#FFB494"/>
<path d="M416.924 318.615H403.596V338.666H416.924V318.615Z" fill="#FFB494"/>
<path d="M468.172 318.615H454.843V338.666H468.172V318.615Z" fill="#FFB494"/>
<path d="M391.561 353.817H378.232V373.868H391.561V353.817Z" fill="#FFB494"/>
<path d="M416.924 353.817H403.596V373.868H416.924V353.817Z" fill="#FFB494"/>
<path d="M136.797 201.64C136.797 211.668 126.103 223.251 121.864 223.251C117.626 223.251 106.937 211.668 106.937 201.64C107.008 197.727 108.612 193.998 111.404 191.256C114.196 188.514 117.953 186.977 121.867 186.977C125.781 186.977 129.538 188.514 132.33 191.256C135.122 193.998 136.726 197.727 136.797 201.64Z" fill="#FFB494"/>
<path d="M121.864 206.321C124.45 206.321 126.545 204.225 126.545 201.64C126.545 199.055 124.45 196.959 121.864 196.959C119.279 196.959 117.184 199.055 117.184 201.64C117.184 204.225 119.279 206.321 121.864 206.321Z" fill="white"/>
<path d="M462.985 234.572C462.985 244.6 452.291 256.183 448.058 256.183C443.824 256.183 433.13 244.6 433.13 234.572C433.13 230.613 434.703 226.816 437.502 224.017C440.302 221.217 444.099 219.645 448.058 219.645C452.017 219.645 455.814 221.217 458.613 224.017C461.412 226.816 462.985 230.613 462.985 234.572Z" fill="#FFB494"/>
<path d="M448.058 239.253C450.643 239.253 452.739 237.157 452.739 234.572C452.739 231.987 450.643 229.891 448.058 229.891C445.472 229.891 443.377 231.987 443.377 234.572C443.377 237.157 445.472 239.253 448.058 239.253Z" fill="white"/>
<path d="M18.6164 413.974H46.6923C46.6923 406.226 40.4073 398.381 32.6544 398.381C24.9014 398.381 18.6164 406.226 18.6164 413.974Z" fill="#FFB494"/>
<path d="M4 413.974H24.8577C24.8577 408.219 20.1864 402.391 14.4313 402.391C8.67608 402.391 4 408.219 4 413.974Z" fill="#FFB494"/>
<path d="M258.375 138.046C223.781 159.196 211.75 218.108 204.42 239.603C196.492 262.847 179.032 262.317 158.772 269.084C138.513 275.85 139.266 290.602 139.266 290.602C134.531 293.828 130.006 297.353 125.719 301.155L151.369 333.936C157.421 329.761 166.404 324.526 178.726 317.084C204.177 301.709 226.96 287.273 241.664 271.232C256.367 255.191 295.011 184.856 295.011 184.856L258.375 138.046Z" fill="#4856DF"/>
<path d="M151.37 333.936L125.714 301.16C114.243 311.368 107.37 321.089 103.914 326.747L140.083 372.954C145.177 363.719 141.128 350.721 141.541 345.048C141.818 341.631 144.919 338.389 151.37 333.936Z" fill="#30242A"/>
<path d="M101.104 331.841L136.666 377.275C138.035 376.038 139.185 374.579 140.068 372.959L103.904 326.752C102.879 328.397 101.945 330.096 101.104 331.841Z" fill="#3EC1F3"/>
<path d="M138.216 335.881L145.104 339.716" stroke="white" stroke-width="4" stroke-linecap="round" stroke-linejoin="round"/>
<path d="M135.149 342.812L142.051 344.377" stroke="white" stroke-width="4" stroke-linecap="round" stroke-linejoin="round"/>
<path d="M147.466 303.663L135.178 313.268" stroke="#3EC1F3" stroke-width="4" stroke-miterlimit="10" stroke-linecap="round"/>
<path d="M141.244 295.706L128.956 305.311" stroke="#3EC1F3" stroke-width="4" stroke-miterlimit="10" stroke-linecap="round"/>
<path d="M153.688 311.621L141.4 321.226" stroke="#3EC1F3" stroke-width="4" stroke-miterlimit="10" stroke-linecap="round"/>
<path d="M159.91 319.578L147.622 329.183" stroke="#3EC1F3" stroke-width="4" stroke-miterlimit="10" stroke-linecap="round"/>
<path d="M138.153 291.025L165.116 325.518" stroke="#3EC1F3" stroke-width="4" stroke-miterlimit="10" stroke-linecap="round"/>
<path d="M269.083 229.663C263.226 220.427 257.495 210.22 253.14 199.686" stroke="#30242A" stroke-width="4" stroke-linecap="round" stroke-linejoin="round"/>
<path d="M278.722 8.4675C281.06 8.4675 282.956 6.57199 282.956 4.23375C282.956 1.89552 281.06 0 278.722 0C276.384 0 274.488 1.89552 274.488 4.23375C274.488 6.57199 276.384 8.4675 278.722 8.4675Z" fill="#3546AB"/>
<path d="M292.162 65.9512L291.871 61.0321C297.534 61.7417 301.728 60.9008 304.727 59.3648L291.871 49.0162C291.871 49.0162 296.323 47.2371 293.65 37.8752L307.96 32.6742C307.206 30.7299 306.706 26.0441 305.262 21.0083L296.741 24.7171C294.752 28.5345 291.899 31.8351 288.41 34.356C286.968 32.8652 285.358 31.5472 283.612 30.4285C283.379 30.2778 283.126 30.1369 282.893 29.9959H282.868C282.63 29.8598 282.382 29.7286 282.144 29.6022H282.105C281.862 29.4807 281.619 29.3591 281.371 29.2522L281.323 29.1647C281.085 29.0529 280.837 28.9557 280.589 28.8585H280.521C280.273 28.771 280.035 28.6884 279.782 28.6106H279.699C279.456 28.5377 279.213 28.4745 278.96 28.421H278.873C278.625 28.3675 278.387 28.3287 278.134 28.2995H278.037C277.794 28.2752 277.551 28.2606 277.303 28.2557C275.179 28.2266 273.074 29.0918 271.319 31.5465C270.272 32.9697 269.703 34.6888 269.696 36.4559C269.73 41.6812 274.591 46.6636 278.931 48.1218C275.5 55.3595 264.412 59.8752 260.159 61.3772C260.295 63.0347 260.426 64.5756 260.543 65.9512H292.162Z" fill="#EAA58B"/>
<path d="M378.655 95.8062C376.643 95.8062 375.671 94.173 376.483 92.1606L383.288 75.3569L383.234 75.3083L383.351 75.1965C385.232 73.4291 386.983 71.5284 388.591 69.5093C391.663 65.5964 392.586 62.7528 391.507 61.5911C391.198 61.2791 390.788 61.0863 390.35 61.0467C389.905 60.9929 389.454 61.0192 389.018 61.1245C385.548 61.8827 379.603 66.6123 372.978 74.4139C364.962 83.8389 349.374 102.49 349.374 102.49C347.75 101.25 345.393 99.1504 342.569 96.618L320.141 125.452C324.947 129.193 330.078 132.497 335.472 135.324C336.49 132.174 338.432 129.403 341.046 127.372C343.661 125.341 346.826 124.145 350.13 123.937C353.434 123.73 356.724 124.522 359.571 126.211C362.419 127.899 364.692 130.406 366.095 133.404C379.608 123.309 390.282 105.294 395.284 95.8062H378.655Z" fill="#EAA58B"/>
<path d="M304.348 72.1877H297.495C310.565 80.0622 304.786 94.9168 304.786 94.9168C304.786 94.9168 322.64 107.394 310.585 122.546C311.47 121.615 312.219 120.564 312.811 119.425C312.811 119.425 315.689 122.069 320.102 125.452L342.53 96.6181C332.113 87.3242 315.203 72.1877 304.348 72.1877Z" fill="#FFB494"/>
<path d="M235.724 96.2436C235.724 96.2436 222.6 107.185 231.47 121.836L236.142 95.5874L235.724 96.2436Z" fill="#FF7235"/>
<path d="M260.523 65.9512V66.1116L261.087 65.9512H260.523Z" fill="#FF7235"/>
<path d="M278.892 48.122C274.571 46.6637 269.71 41.696 269.657 36.4561L258.521 41.3168C258.953 47.4512 259.58 55.1847 260.101 61.3773C264.393 59.8753 275.49 55.3597 278.892 48.122Z" fill="#30242A"/>
<path d="M291.871 49.0161L304.727 59.3647C307.274 58.1375 309.292 56.0315 310.41 53.4346C312.305 48.6904 311.081 44.6074 309.603 39.3091C309.603 39.3091 313.37 36.7864 312.782 34.4483C312.296 32.5478 308.004 32.8102 308.004 32.8102L307.96 32.6887L293.65 37.8898C296.323 47.2371 291.871 49.0161 291.871 49.0161Z" fill="#30242A"/>
<path d="M288.41 34.3465C291.899 31.8255 294.752 28.525 296.741 24.7075L283.617 30.419C285.361 31.5379 286.97 32.856 288.41 34.3465Z" fill="#30242A"/>
<path d="M281.371 29.2085L281.323 29.1648L281.371 29.2085Z" fill="#3546AB"/>
<path d="M271.31 31.498C273.064 29.0433 275.169 28.1781 277.293 28.2073H277.245C276.024 14.7186 279.033 7.38365 281.264 3.90332C279.125 4.21925 277.013 4.69698 274.945 5.33239C259.483 10.0133 257.709 25.2616 258.142 34.3319C258.224 36.1498 258.38 38.5705 258.569 41.3023L269.705 36.4415C269.7 34.6649 270.262 32.933 271.31 31.498Z" fill="#3546AB"/>
<path d="M282.868 29.9716C282.63 29.8355 282.382 29.7043 282.144 29.5779C282.392 29.7043 282.63 29.8355 282.868 29.9716Z" fill="#3EC1F3"/>
<path d="M283.612 30.4187C283.379 30.268 283.126 30.127 282.893 29.9861C283.136 30.1368 283.379 30.268 283.612 30.4187Z" fill="#3EC1F3"/>
<path d="M279.69 28.5863C279.447 28.5134 279.203 28.4502 278.951 28.3967C279.199 28.4502 279.447 28.5134 279.69 28.5863Z" fill="#3EC1F3"/>
<path d="M282.105 29.5585C281.862 29.437 281.619 29.3154 281.371 29.2085C281.619 29.3154 281.862 29.437 282.105 29.5585Z" fill="#3EC1F3"/>
<path d="M278.027 28.2509C277.784 28.2266 277.541 28.212 277.293 28.2071C277.536 28.1925 277.784 28.2266 278.027 28.2509Z" fill="#3EC1F3"/>
<path d="M278.863 28.382C278.615 28.3285 278.377 28.2897 278.124 28.2605C278.372 28.2897 278.615 28.3285 278.863 28.382Z" fill="#3EC1F3"/>
<path d="M280.511 28.8536C280.263 28.7661 280.025 28.6835 279.772 28.6057C280.02 28.6786 280.263 28.7661 280.511 28.8536Z" fill="#3EC1F3"/>
<path d="M281.323 29.1649C281.085 29.0531 280.837 28.9559 280.589 28.8586C280.837 28.9753 281.075 29.0725 281.323 29.1649Z" fill="#3EC1F3"/>
<path d="M277.245 28.1927H277.293C277.536 28.1927 277.779 28.1927 278.027 28.2364H278.124C278.372 28.2656 278.61 28.3045 278.863 28.358H278.951C279.199 28.4114 279.437 28.4746 279.69 28.5475H279.772C280.02 28.6253 280.258 28.7079 280.511 28.7954H280.579C280.827 28.8926 281.065 28.9899 281.313 29.1017L281.371 29.126C281.619 29.2329 281.857 29.3544 282.105 29.4759H282.144C282.392 29.6023 282.63 29.7336 282.869 29.8697H282.893C283.136 30.0106 283.379 30.1516 283.612 30.3023L296.736 24.5908L305.257 20.8821C302.657 11.8118 296.994 1.56528 281.26 3.80124C279.033 7.37878 276.025 14.7137 277.245 28.1927Z" fill="#3EC1F3"/>
<path d="M351.133 123.882C347.643 123.883 344.243 124.991 341.423 127.048C338.602 129.104 336.507 132.002 335.438 135.324C342.593 138.96 350.161 141.196 356.038 139.033C359.638 137.648 363.02 135.752 366.08 133.404C364.755 130.558 362.643 128.15 359.996 126.463C357.348 124.777 354.273 123.881 351.133 123.882Z" fill="#CA7358"/>
<path d="M306.599 151.287C322.639 140.812 311.46 122.978 310.585 122.545C322.615 107.394 304.791 94.9166 304.791 94.9166C304.791 94.9166 310.565 80.0621 297.499 72.1876H292.532L292.162 65.9512H261.102L260.538 66.1116L261.063 72.1876H251.04L236.142 95.5923L231.47 121.841L231.709 122.234C231.55 122.529 231.388 122.826 231.223 123.124C228.209 129.054 227.767 134.099 228.539 138.192C230.148 146.752 237.041 151.263 237.041 151.263H306.599V151.287Z" fill="#FF7235"/>
<path d="M237.06 159.099H306.575V152.848V151.287H237.06V152.848V159.099Z" fill="#30242A"/>
<path d="M229.798 94.9167H304.791" stroke="#A15842" stroke-width="4" stroke-miterlimit="10" stroke-linecap="round"/>
<path d="M231.587 122.545H310.974" stroke="#A15842" stroke-width="4" stroke-miterlimit="10" stroke-linecap="round"/>
<path d="M293.65 75.3084L293.484 72.6738" stroke="#A15842" stroke-width="4" stroke-miterlimit="10" stroke-linecap="round"/>
<path d="M285.182 73.9716L284.74 66.8408" stroke="#A15842" stroke-width="4" stroke-miterlimit="10" stroke-linecap="round"/>
<path d="M278.499 73.9716L278.056 66.8408" stroke="#A15842" stroke-width="4" stroke-miterlimit="10" stroke-linecap="round"/>
<path d="M271.815 73.9716L271.373 66.8408" stroke="#A15842" stroke-width="4" stroke-miterlimit="10" stroke-linecap="round"/>
<path d="M348.441 102.115L343.113 108.731" stroke="#A15842" stroke-width="4" stroke-linecap="round" stroke-linejoin="round"/>
<path d="M285.629 60.6042C287.6 61.2935 289.641 61.7613 291.715 61.9993" stroke="#A15842" stroke-width="4" stroke-miterlimit="10" stroke-linecap="round"/>
<path d="M388.591 69.5094C388.615 70.8169 389.563 71.7405 391.055 71.7405H405.594C407.606 71.7405 409.9 70.1072 410.717 68.09L415.15 57.1143C415.962 55.102 414.99 53.4688 412.977 53.4688H398.434C396.421 53.4688 394.127 55.102 393.315 57.1143L391.507 61.5911C392.586 62.7577 391.663 65.6207 388.591 69.5094Z" fill="#F5EBDD"/>
<path d="M418.528 46.3428H414.601L414.256 47.1934C413.983 47.8266 413.542 48.373 412.981 48.7732C412.42 49.1734 411.759 49.4121 411.072 49.4634H403.577C402.327 49.4634 401.72 48.4475 402.225 47.1934L402.57 46.3428H398.643C396.626 46.3428 394.336 47.976 393.52 49.9932L389.019 61.1293C389.454 61.024 389.905 60.9977 390.35 61.0515C390.788 61.0912 391.198 61.2839 391.507 61.5959L393.315 57.1192C394.127 55.1068 396.422 53.4736 398.434 53.4736H412.977C414.99 53.4736 415.962 55.1068 415.15 57.1192L410.717 68.0948C409.9 70.112 407.606 71.7453 405.594 71.7453H391.055C389.543 71.7453 388.625 70.8217 388.591 69.5142C386.978 71.5321 385.222 73.4311 383.336 75.1964L383.273 75.3568L376.468 92.1606C375.656 94.173 376.628 95.8062 378.641 95.8062H398.531C400.543 95.8062 402.838 94.173 403.65 92.1606L420.662 49.9932C421.518 47.976 420.546 46.3428 418.528 46.3428ZM399.085 89.1177C398.82 89.7333 398.391 90.2645 397.846 90.6538C397.304 91.0744 396.645 91.3157 395.96 91.344H384.858C383.623 91.344 383.03 90.3475 383.526 89.1177C383.796 88.4969 384.23 87.9614 384.781 87.5691C385.333 87.1768 385.981 86.9425 386.656 86.8915H397.797C399.003 86.8964 399.596 87.8928 399.1 89.1226L399.085 89.1177Z" fill="#3546AB"/>
<path d="M397.773 86.8965H386.632C385.957 86.9475 385.309 87.1818 384.757 87.5741C384.205 87.9664 383.771 88.5019 383.502 89.1227C383.015 90.3525 383.599 91.349 384.833 91.349H395.974C396.659 91.3207 397.319 91.0794 397.86 90.6587C398.406 90.2695 398.835 89.7383 399.1 89.1227C399.596 87.893 399.003 86.8965 397.773 86.8965Z" fill="#3EC1F3"/>
<path d="M403.577 49.4634H411.072C411.759 49.4121 412.42 49.1734 412.981 48.7732C413.542 48.373 413.983 47.8266 414.256 47.1934L414.601 46.3428H402.57L402.225 47.1934C401.72 48.4475 402.327 49.4634 403.577 49.4634Z" fill="#3EC1F3"/>
<path d="M316.379 16.9351L286.524 30.3022" stroke="#30242A" stroke-width="4" stroke-linecap="round" stroke-linejoin="round"/>
<path d="M306.788 44.8166C305.894 45.0548 302.968 44.5638 302.487 42.0508" stroke="black" stroke-width="4" stroke-miterlimit="10" stroke-linecap="round"/>
<path d="M302.185 32.1054C302.98 32.1054 303.624 31.4612 303.624 30.6666C303.624 29.8719 302.98 29.2278 302.185 29.2278C301.391 29.2278 300.746 29.8719 300.746 30.6666C300.746 31.4612 301.391 32.1054 302.185 32.1054Z" fill="#30242A"/>
<path d="M277.488 37.1948L282.713 40.5196" stroke="#A15842" stroke-width="4" stroke-miterlimit="10" stroke-linecap="round"/>
<path d="M288.75 33.4229L294.544 37.8753" stroke="#30242A" stroke-width="4" stroke-linecap="round" stroke-linejoin="round"/>
<path d="M277.609 48.574L293.207 49.0163" stroke="#30242A" stroke-width="4" stroke-linecap="round" stroke-linejoin="round"/>
<path d="M338.194 152.848C339.967 152.848 341.667 153.552 342.92 154.805C344.173 156.059 344.878 157.759 344.878 159.531V159.531C344.88 160.411 344.709 161.282 344.375 162.096C344.04 162.909 343.548 163.648 342.927 164.272C342.306 164.895 341.569 165.389 340.757 165.727C339.944 166.064 339.074 166.238 338.194 166.239" stroke="#FF7235" stroke-width="4" stroke-miterlimit="10"/>
<path d="M347.57 152.848C349.34 152.853 351.035 153.559 352.284 154.812C353.533 156.065 354.235 157.762 354.235 159.531C354.24 161.304 353.541 163.007 352.291 164.265C351.041 165.523 349.344 166.233 347.57 166.239" stroke="#FF7235" stroke-width="4" stroke-miterlimit="10"/>
<path d="M395.746 153.737H322.124C318.951 153.737 316.379 156.309 316.379 159.483V159.58C316.379 162.753 318.951 165.325 322.124 165.325H395.746C398.919 165.325 401.491 162.753 401.491 159.58V159.483C401.491 156.309 398.919 153.737 395.746 153.737Z" fill="#30242A"/>
<path d="M408.093 400.728L363.75 154.03L352.344 156.08L396.688 402.778L408.093 400.728Z" fill="#30242A"/>
<path d="M322.221 153.737H322.124C318.951 153.737 316.379 156.309 316.379 159.483V159.58C316.379 162.753 318.951 165.325 322.124 165.325H322.221C325.395 165.325 327.967 162.753 327.967 159.58V159.483C327.967 156.309 325.395 153.737 322.221 153.737Z" stroke="#FF7235" stroke-width="4" stroke-miterlimit="10"/>
<path d="M377.839 153.212C379.151 153.669 380.288 154.522 381.093 155.655C381.898 156.787 382.33 158.142 382.33 159.531V159.531C382.33 160.83 381.951 162.1 381.241 163.187C380.53 164.273 379.519 165.13 378.33 165.651" stroke="#FF7235" stroke-width="4" stroke-miterlimit="10" stroke-linecap="round"/>
<path d="M385.616 153.212C386.928 153.669 388.066 154.522 388.871 155.655C389.675 156.787 390.108 158.142 390.107 159.531V159.531C390.107 160.83 389.728 162.1 389.018 163.187C388.308 164.273 387.296 165.13 386.107 165.651" stroke="#FF7235" stroke-width="4" stroke-miterlimit="10" stroke-linecap="round"/>
<path d="M402.381 402.391H239.734V413.979H402.381V402.391Z" fill="#30242A"/>
<path d="M249.757 428.236C257.633 428.236 264.018 421.851 264.018 413.974C264.018 406.098 257.633 399.713 249.757 399.713C241.88 399.713 235.495 406.098 235.495 413.974C235.495 421.851 241.88 428.236 249.757 428.236Z" fill="#30242A"/>
<path d="M249.757 419.321C252.71 419.321 255.104 416.927 255.104 413.974C255.104 411.021 252.71 408.627 249.757 408.627C246.804 408.627 244.41 411.021 244.41 413.974C244.41 416.927 246.804 419.321 249.757 419.321Z" fill="#FFB494"/>
<path d="M404.908 428.236C412.785 428.236 419.17 421.851 419.17 413.974C419.17 406.098 412.785 399.713 404.908 399.713C397.032 399.713 390.647 406.098 390.647 413.974C390.647 421.851 397.032 428.236 404.908 428.236Z" fill="#30242A"/>
<path d="M404.908 419.321C407.861 419.321 410.255 416.927 410.255 413.974C410.255 411.021 407.861 408.627 404.908 408.627C401.955 408.627 399.562 411.021 399.562 413.974C399.562 416.927 401.955 419.321 404.908 419.321Z" fill="#FFB494"/>
<path d="M272.039 413.974H227.48C227.566 408.122 229.952 402.539 234.12 398.432C238.289 394.324 243.907 392.021 249.759 392.021C255.612 392.021 261.229 394.324 265.398 398.432C269.567 402.539 271.952 408.122 272.039 413.974Z" fill="#FF7235"/>
<path d="M427.185 413.974H382.626C382.713 408.122 385.098 402.539 389.267 398.432C393.436 394.324 399.053 392.021 404.906 392.021C410.758 392.021 416.376 394.324 420.545 398.432C424.714 402.539 427.099 408.122 427.185 413.974Z" fill="#FF7235"/>
<path d="M293.786 363.621H335.462C335.948 356.33 337.329 346.152 339.025 332.172C342.603 302.652 345.286 275.816 341.708 254.351C338.131 232.885 306.575 159.079 306.575 159.079H247.142C242.475 199.351 281.449 245.144 293.854 264.165C307.27 284.74 296.09 298.156 288.935 318.28C281.78 338.403 293.854 346.905 293.854 346.905C293.484 352.47 293.461 358.053 293.786 363.621Z" fill="#4856DF"/>
<path d="M300.523 397.044H359.202C355.056 387.323 342.34 382.515 338.131 378.685C335.54 376.332 334.937 371.744 335.462 363.616H293.786C294.695 379.171 298.161 390.754 300.523 397.044Z" fill="#30242A"/>
<path d="M302.798 402.391H360.495C360.37 400.548 359.933 398.74 359.202 397.044H300.523C301.184 398.866 301.944 400.651 302.798 402.391Z" fill="#3EC1F3"/>
<path d="M309.992 348.47V363.101" stroke="#3EC1F3" stroke-width="4" stroke-miterlimit="10" stroke-linecap="round"/>
<path d="M299.891 348.47V363.101" stroke="#3EC1F3" stroke-width="4" stroke-miterlimit="10" stroke-linecap="round"/>
<path d="M320.092 348.47V363.101" stroke="#3EC1F3" stroke-width="4" stroke-miterlimit="10" stroke-linecap="round"/>
<path d="M330.193 348.47V363.101" stroke="#3EC1F3" stroke-width="4" stroke-miterlimit="10" stroke-linecap="round"/>
<path d="M293.961 348.023H336.736" stroke="#3EC1F3" stroke-width="4" stroke-miterlimit="10" stroke-linecap="round"/>
<path d="M320.817 193.673C319.358 190.067 317.968 186.577 316.632 183.296L294.758 179.456V179.533C294.326 181.994 294.889 184.525 296.322 186.57C297.756 188.616 299.944 190.008 302.404 190.441L320.817 193.673Z" fill="#3EC1F3"/>
<path d="M328.856 375.652L335.764 372.823" stroke="white" stroke-width="4" stroke-linecap="round" stroke-linejoin="round"/>
<path d="M332.424 382.34L338.194 377.684" stroke="white" stroke-width="4" stroke-linecap="round" stroke-linejoin="round"/>
<path d="M404.165 90.8968C404.165 90.8968 411.816 91.1982 412.428 84.5146C412.428 84.5146 417.892 82.0016 416.463 77.0095C416.463 77.0095 421.459 75.5805 420.03 70.5836C419.938 70.2676 422.869 69.6989 422.723 65.5818C422.509 59.5739 418.436 55.2478 416.657 54.8006C411.31 53.4639 413.342 62.1501 413.089 61.9314C409.973 59.2579 405.424 58.0427 403.8 59.4037C400.971 61.7758 402.935 64.945 402.935 64.945C402.935 64.945 399.309 64.0895 397.535 66.7095C395.376 69.8885 399.236 72.8536 399.236 72.8536C399.236 72.8536 395.192 73.3056 395.867 77.0484C396.616 81.2336 402.901 82.1668 405.881 86.5513L404.165 90.8968Z" fill="#EAA58B"/>
<path d="M399.071 72.0854C403.329 73.6846 410.736 77.2282 412.841 83.0757" stroke="#A15842" stroke-width="4" stroke-linecap="round" stroke-linejoin="round"/>
<path d="M403.844 64.6484C407.49 66.6365 413.93 70.7196 416.832 76.047" stroke="#A15842" stroke-width="4" stroke-linecap="round" stroke-linejoin="round"/>
<path d="M413.779 61.2461C416.176 63.3751 418.776 66.209 420.366 69.5094" stroke="#A15842" stroke-width="4" stroke-linecap="round" stroke-linejoin="round"/>
<path d="M261.121 72.1877C261.121 72.1877 277.094 96.2438 272.709 119.425C269.589 135.913 232.156 150.199 210.321 155.059V142.149C210.321 142.149 255.774 131.013 261.121 110.957C264.363 98.8054 251.317 72.1877 251.317 72.1877" fill="#F5EBDD"/>
<path d="M366.732 150.198C364.058 143.51 355.591 136.384 345.787 132.816C326.946 125.967 281.172 135.937 281.172 135.937L274.314 121.291L240.565 137.818C245.426 147.301 251.259 155.273 257.218 160.785C259.247 158.273 261.97 156.412 265.047 155.434C268.125 154.456 271.423 154.404 274.53 155.284C277.637 156.164 280.417 157.938 282.524 160.386C284.632 162.833 285.973 165.845 286.383 169.049C305.043 167.59 325.682 159.06 331.535 153.795C331.535 153.795 335.098 156.916 339.108 157.358C339.108 158.695 332.871 176.52 344.012 172.509C344.012 172.509 347.128 176.52 351.586 172.067C351.586 172.067 354.706 176.52 359.164 172.509C359.164 172.509 361.594 174.031 364.953 170.283C368.958 165.753 370.144 158.7 366.732 150.198Z" fill="#EAA58B"/>
<path d="M251.317 72.1877H250.214C241.168 72.1877 226.357 78.8762 228.141 96.2001C229.707 110.702 233.916 124.794 240.56 137.779L274.309 121.253L251.317 72.1877Z" fill="#FFB494"/>
<path d="M270.036 154.626C267.578 154.625 265.151 155.173 262.933 156.232C260.715 157.291 258.762 158.834 257.218 160.746C258.453 161.899 259.751 162.981 261.107 163.988C267.382 168.577 276.603 169.753 286.383 168.99C285.869 165.018 283.926 161.37 280.918 158.726C277.909 156.083 274.041 154.625 270.036 154.626Z" fill="#CA7358"/>
<path d="M344.401 171.761C346.346 167.872 350.759 157.791 347.571 151.064" stroke="#A15842" stroke-width="4" stroke-linecap="round" stroke-linejoin="round"/>
<path d="M269.589 137.249L280.093 135.096" stroke="#A15842" stroke-width="4" stroke-linecap="round" stroke-linejoin="round"/>
<path d="M352.29 171.586C354.312 167.483 358.687 157.592 355.591 151.064" stroke="#A15842" stroke-width="4" stroke-linecap="round" stroke-linejoin="round"/>
<path d="M360.068 172.072C362.012 168.154 366.333 157.752 363.169 151.064" stroke="#A15842" stroke-width="4" stroke-linecap="round" stroke-linejoin="round"/>
</g>
<defs>
<filter id="filter0_d_14_946" x="0" y="0" width="548" height="436.236" filterUnits="userSpaceOnUse" color-interpolation-filters="sRGB">
<feFlood flood-opacity="0" result="BackgroundImageFix"/>
<feColorMatrix in="SourceAlpha" type="matrix" values="0 0 0 0 0 0 0 0 0 0 0 0 0 0 0 0 0 0 127 0" result="hardAlpha"/>
<feOffset dy="4"/>
<feGaussianBlur stdDeviation="2"/>
<feComposite in2="hardAlpha" operator="out"/>
<feColorMatrix type="matrix" values="0 0 0 0 0 0 0 0 0 0 0 0 0 0 0 0 0 0 0.25 0"/>
<feBlend mode="normal" in2="BackgroundImageFix" result="effect1_dropShadow_14_946"/>
<feBlend mode="normal" in="SourceGraphic" in2="effect1_dropShadow_14_946" result="shape"/>
</filter>
</defs>
</svg>
